<svg width="49" height="50" viewBox="0 0 49 50" fill="none" xmlns="http://www.w3.org/2000/svg">
<g clip-path="url(#clip0_57_4506)">
<g filter="url(#filter0_d_57_4506)">
<path d="M49 26C49 39.8071 37.8071 51 24 51C10.1929 51 -1 39.8071 -1 26C-1 12.1929 10.1929 1 24 1C37.8071 1 49 12.1929 49 26Z" fill="#BDAC8D"/>
<path d="M47 26C47 38.7026 36.7026 49 24 49C11.2975 49 1 38.7026 1 26C1 13.2975 11.2975 3 24 3C36.7026 3 47 13.2975 47 26Z" stroke="white" stroke-width="4"/>
</g>
<path d="M34 20.4256C34 20.7912 33.8605 21.1569 33.5815 21.4355L22.1529 32.864C21.875 33.1444 21.5089 33.2828 21.1429 33.2828C20.7768 33.2828 20.4116 33.1433 20.133 32.8643L14.4188 27.15C14.1397 26.8721 14 26.506 14 26.1399C14 25.3239 14.6674 24.7114 15.4286 24.7114C15.7941 24.7114 16.1598 24.8509 16.4384 25.1299L21.1429 29.8364L31.5625 19.4167C31.8393 19.1368 32.2054 18.9971 32.5714 18.9971C33.3348 18.9971 34 19.6087 34 20.4256Z" fill="white"/>
</g>
<defs>
<filter id="filter0_d_57_4506" x="-5" y="1" width="58" height="58" filterUnits="userSpaceOnUse" color-interpolation-filters="sRGB">
<feFlood flood-opacity="0" result="BackgroundImageFix"/>
<feColorMatrix in="SourceAlpha" type="matrix" values="0 0 0 0 0 0 0 0 0 0 0 0 0 0 0 0 0 0 127 0" result="hardAlpha"/>
<feOffset dy="4"/>
<feGaussianBlur stdDeviation="2"/>
<feComposite in2="hardAlpha" operator="out"/>
<feColorMatrix type="matrix" values="0 0 0 0 0 0 0 0 0 0 0 0 0 0 0 0 0 0 0.25 0"/>
<feBlend mode="normal" in2="BackgroundImageFix" result="effect1_dropShadow_57_4506"/>
<feBlend mode="normal" in="SourceGraphic" in2="effect1_dropShadow_57_4506" result="shape"/>
</filter>
<clipPath id="clip0_57_4506">
<rect y="0.99707" width="49" height="49" rx="24.5" fill="white"/>
</clipPath>
</defs>
</svg>